<svg xmlns="http://www.w3.org/2000/svg" xmlns:xlink="http://www.w3.org/1999/xlink" version="1.2" viewBox="505.9 232.13 45.75 45.75">
<defs>
<clipPath id="clip1">
  <path d="M 506 232.152344 L 551 232.152344 L 551 277.875 L 506 277.875 Z M 506 232.152344 "/>
</clipPath>
<clipPath id="clip2">
  <path d="M 505.921875 232.152344 L 551.648438 232.152344 L 551.648438 277.875 L 505.921875 277.875 Z M 505.921875 232.152344 "/>
</clipPath>
</defs>
<g id="surface1">
<g clip-path="url(#clip1)" clip-rule="nonzero">
<path style=" stroke:none;fill-rule:nonzero;fill:rgb(100%,100%,100%);fill-opacity:1;" d="M 528.785156 277.183594 C 528.058594 277.183594 527.335938 277.148438 526.613281 277.078125 C 525.890625 277.007812 525.171875 276.898438 524.460938 276.757812 C 523.746094 276.617188 523.042969 276.441406 522.347656 276.230469 C 521.65625 276.019531 520.972656 275.773438 520.300781 275.496094 C 519.628906 275.21875 518.972656 274.910156 518.332031 274.566406 C 517.695312 274.222656 517.070312 273.851562 516.46875 273.449219 C 515.863281 273.042969 515.28125 272.613281 514.71875 272.152344 C 514.160156 271.691406 513.621094 271.203125 513.109375 270.691406 C 512.59375 270.175781 512.109375 269.640625 511.648438 269.078125 C 511.1875 268.515625 510.753906 267.933594 510.351562 267.332031 C 509.949219 266.726562 509.574219 266.105469 509.234375 265.464844 C 508.890625 264.824219 508.582031 264.167969 508.300781 263.5 C 508.023438 262.828125 507.78125 262.144531 507.570312 261.449219 C 507.359375 260.753906 507.183594 260.050781 507.039062 259.339844 C 506.898438 258.628906 506.792969 257.910156 506.722656 257.1875 C 506.652344 256.464844 506.613281 255.738281 506.613281 255.015625 C 506.613281 254.289062 506.652344 253.5625 506.722656 252.839844 C 506.792969 252.117188 506.898438 251.402344 507.039062 250.6875 C 507.183594 249.976562 507.359375 249.273438 507.570312 248.578125 C 507.78125 247.882812 508.023438 247.199219 508.300781 246.53125 C 508.582031 245.859375 508.890625 245.203125 509.234375 244.5625 C 509.574219 243.921875 509.949219 243.300781 510.351562 242.695312 C 510.753906 242.09375 511.1875 241.511719 511.648438 240.949219 C 512.109375 240.386719 512.59375 239.851562 513.109375 239.335938 C 513.621094 238.824219 514.160156 238.335938 514.71875 237.875 C 515.28125 237.414062 515.863281 236.984375 516.46875 236.582031 C 517.070312 236.175781 517.695312 235.804688 518.332031 235.460938 C 518.972656 235.121094 519.628906 234.808594 520.300781 234.53125 C 520.972656 234.253906 521.65625 234.007812 522.347656 233.796875 C 523.042969 233.589844 523.746094 233.410156 524.460938 233.269531 C 525.171875 233.128906 525.890625 233.023438 526.613281 232.949219 C 527.335938 232.878906 528.058594 232.84375 528.785156 232.84375 C 529.511719 232.84375 530.234375 232.878906 530.957031 232.949219 C 531.679688 233.023438 532.398438 233.128906 533.109375 233.269531 C 533.820312 233.410156 534.527344 233.589844 535.21875 233.796875 C 535.914062 234.007812 536.597656 234.253906 537.269531 234.53125 C 537.941406 234.808594 538.59375 235.121094 539.234375 235.460938 C 539.875 235.804688 540.5 236.175781 541.101562 236.582031 C 541.707031 236.984375 542.289062 237.414062 542.847656 237.875 C 543.410156 238.335938 543.949219 238.824219 544.460938 239.335938 C 544.976562 239.851562 545.460938 240.386719 545.921875 240.949219 C 546.382812 241.511719 546.816406 242.09375 547.21875 242.695312 C 547.621094 243.300781 547.996094 243.921875 548.335938 244.5625 C 548.679688 245.203125 548.988281 245.859375 549.265625 246.53125 C 549.546875 247.199219 549.789062 247.882812 550 248.578125 C 550.210938 249.273438 550.386719 249.976562 550.527344 250.6875 C 550.671875 251.402344 550.777344 252.117188 550.847656 252.839844 C 550.917969 253.5625 550.953125 254.289062 550.953125 255.015625 C 550.953125 255.738281 550.917969 256.464844 550.847656 257.1875 C 550.777344 257.910156 550.671875 258.628906 550.527344 259.339844 C 550.386719 260.050781 550.210938 260.753906 550 261.449219 C 549.789062 262.144531 549.546875 262.828125 549.265625 263.5 C 548.988281 264.167969 548.679688 264.824219 548.335938 265.464844 C 547.996094 266.105469 547.621094 266.726562 547.21875 267.332031 C 546.816406 267.933594 546.382812 268.515625 545.921875 269.078125 C 545.460938 269.640625 544.976562 270.175781 544.460938 270.691406 C 543.949219 271.203125 543.410156 271.691406 542.847656 272.152344 C 542.289062 272.613281 541.707031 273.042969 541.101562 273.449219 C 540.5 273.851562 539.875 274.222656 539.234375 274.566406 C 538.59375 274.910156 537.941406 275.21875 537.269531 275.496094 C 536.597656 275.773438 535.914062 276.019531 535.21875 276.230469 C 534.527344 276.441406 533.820312 276.617188 533.109375 276.757812 C 532.398438 276.898438 531.679688 277.007812 530.957031 277.078125 C 530.234375 277.148438 529.511719 277.183594 528.785156 277.183594 Z M 528.785156 277.183594 "/>
</g>
<g clip-path="url(#clip2)" clip-rule="nonzero">
<path style=" stroke:none;fill-rule:nonzero;fill:rgb(100%,100%,100%);fill-opacity:1;" d="M 505.921875 255.015625 C 505.921875 242.40625 516.179688 232.152344 528.785156 232.152344 C 541.390625 232.152344 551.648438 242.40625 551.648438 255.015625 C 551.648438 267.621094 541.390625 277.875 528.785156 277.875 C 516.179688 277.875 505.921875 267.621094 505.921875 255.015625 Z M 550.261719 255.015625 C 550.261719 243.171875 540.628906 233.535156 528.785156 233.535156 C 516.941406 233.535156 507.308594 243.171875 507.308594 255.015625 C 507.308594 266.855469 516.941406 276.492188 528.785156 276.492188 C 540.628906 276.492188 550.261719 266.855469 550.261719 255.015625 Z M 550.261719 255.015625 "/>
</g>
<path style=" stroke:none;fill-rule:nonzero;fill:rgb(0%,0%,0%);fill-opacity:1;" d="M 520.136719 253.175781 L 528.90625 261.625 L 537.429688 253.160156 L 535.476562 251.191406 L 528.875 257.746094 L 522.058594 251.179688 Z M 520.136719 253.175781 "/>
</g>
</svg>
