<svg xmlns="http://www.w3.org/2000/svg" xmlns:xlink="http://www.w3.org/1999/xlink" version="1.2" viewBox="486.13 235.18 45.02 45.02">
<defs>
<filter id="alpha" filterUnits="objectBoundingBox" x="0%" y="0%" width="100%" height="100%">
  <feColorMatrix type="matrix" in="SourceGraphic" values="0 0 0 0 1 0 0 0 0 1 0 0 0 0 1 0 0 0 1 0"/>
</filter>
<mask id="mask0">
  <g filter="url(#alpha)">
<rect x="0" y="0" width="1012.5" height="487.499991" style="fill:rgb(0%,0%,0%);fill-opacity:1.5;stroke:none;"/>
  </g>
</mask>
<clipPath id="clip2">
  <path d="M 0.15625 0.203125 L 45 0.203125 L 45 45 L 0.15625 45 Z M 0.15625 0.203125 "/>
</clipPath>
<clipPath id="clip3">
  <path d="M 0.15625 0.203125 L 45.132812 0.203125 L 45.132812 45.179688 L 0.15625 45.179688 Z M 0.15625 0.203125 "/>
</clipPath>
<clipPath id="clip1">
  <rect x="0" y="0" width="46" height="46"/>
</clipPath>
<g id="surface5" clip-path="url(#clip1)">
<g clip-path="url(#clip2)" clip-rule="nonzero">
<path style=" stroke:none;fill-rule:nonzero;fill:rgb(100%,87.059021%,34.899902%);fill-opacity:1;" d="M 22.644531 0.882812 C 23.359375 0.882812 24.074219 0.917969 24.785156 0.988281 C 25.492188 1.058594 26.199219 1.164062 26.898438 1.304688 C 27.601562 1.441406 28.292969 1.617188 28.976562 1.824219 C 29.660156 2.03125 30.332031 2.269531 30.992188 2.542969 C 31.652344 2.816406 32.296875 3.121094 32.925781 3.460938 C 33.554688 3.796875 34.167969 4.164062 34.761719 4.558594 C 35.355469 4.957031 35.925781 5.382812 36.480469 5.835938 C 37.03125 6.289062 37.558594 6.765625 38.066406 7.269531 C 38.570312 7.777344 39.050781 8.304688 39.503906 8.855469 C 39.957031 9.410156 40.378906 9.980469 40.777344 10.574219 C 41.175781 11.167969 41.539062 11.78125 41.878906 12.410156 C 42.214844 13.042969 42.519531 13.6875 42.792969 14.347656 C 43.066406 15.003906 43.304688 15.675781 43.511719 16.359375 C 43.722656 17.042969 43.894531 17.734375 44.035156 18.4375 C 44.171875 19.136719 44.277344 19.84375 44.347656 20.554688 C 44.417969 21.265625 44.453125 21.976562 44.453125 22.691406 C 44.453125 23.40625 44.417969 24.117188 44.347656 24.828125 C 44.277344 25.539062 44.171875 26.246094 44.035156 26.945312 C 43.894531 27.644531 43.722656 28.335938 43.511719 29.019531 C 43.304688 29.703125 43.066406 30.375 42.792969 31.035156 C 42.519531 31.695312 42.214844 32.339844 41.878906 32.96875 C 41.539062 33.601562 41.175781 34.210938 40.777344 34.804688 C 40.378906 35.398438 39.957031 35.972656 39.503906 36.523438 C 39.050781 37.078125 38.570312 37.605469 38.066406 38.109375 C 37.558594 38.617188 37.03125 39.09375 36.480469 39.546875 C 35.925781 40 35.355469 40.425781 34.761719 40.824219 C 34.167969 41.21875 33.554688 41.585938 32.925781 41.921875 C 32.296875 42.257812 31.652344 42.5625 30.992188 42.835938 C 30.332031 43.109375 29.660156 43.351562 28.976562 43.558594 C 28.292969 43.765625 27.601562 43.9375 26.898438 44.078125 C 26.199219 44.21875 25.492188 44.324219 24.785156 44.390625 C 24.074219 44.460938 23.359375 44.496094 22.644531 44.496094 C 21.929688 44.496094 21.21875 44.460938 20.507812 44.390625 C 19.796875 44.324219 19.09375 44.21875 18.390625 44.078125 C 17.691406 43.9375 17 43.765625 16.316406 43.558594 C 15.632812 43.351562 14.960938 43.109375 14.300781 42.835938 C 13.640625 42.5625 12.996094 42.257812 12.367188 41.921875 C 11.738281 41.585938 11.125 41.21875 10.53125 40.824219 C 9.9375 40.425781 9.363281 40 8.8125 39.546875 C 8.257812 39.09375 7.730469 38.617188 7.226562 38.109375 C 6.722656 37.605469 6.242188 37.078125 5.789062 36.523438 C 5.335938 35.972656 4.910156 35.398438 4.515625 34.804688 C 4.117188 34.210938 3.75 33.601562 3.414062 32.96875 C 3.078125 32.339844 2.773438 31.695312 2.5 31.035156 C 2.226562 30.375 1.984375 29.703125 1.777344 29.019531 C 1.570312 28.335938 1.398438 27.644531 1.257812 26.945312 C 1.117188 26.246094 1.015625 25.539062 0.945312 24.828125 C 0.875 24.117188 0.839844 23.40625 0.839844 22.691406 C 0.839844 21.976562 0.875 21.265625 0.945312 20.554688 C 1.015625 19.84375 1.117188 19.136719 1.257812 18.4375 C 1.398438 17.734375 1.570312 17.042969 1.777344 16.359375 C 1.984375 15.675781 2.226562 15.003906 2.5 14.347656 C 2.773438 13.6875 3.078125 13.042969 3.414062 12.410156 C 3.75 11.78125 4.117188 11.167969 4.515625 10.574219 C 4.910156 9.980469 5.335938 9.410156 5.789062 8.855469 C 6.242188 8.304688 6.722656 7.777344 7.226562 7.269531 C 7.730469 6.765625 8.257812 6.289062 8.8125 5.835938 C 9.363281 5.382812 9.9375 4.957031 10.53125 4.558594 C 11.125 4.164062 11.738281 3.796875 12.367188 3.460938 C 12.996094 3.121094 13.640625 2.816406 14.300781 2.542969 C 14.960938 2.269531 15.632812 2.03125 16.316406 1.824219 C 17 1.617188 17.691406 1.441406 18.390625 1.304688 C 19.09375 1.164062 19.796875 1.058594 20.507812 0.988281 C 21.21875 0.917969 21.929688 0.882812 22.644531 0.882812 Z M 22.644531 0.882812 "/>
</g>
<g clip-path="url(#clip3)" clip-rule="nonzero">
<path style=" stroke:none;fill-rule:nonzero;fill:rgb(100%,87.059021%,34.899902%);fill-opacity:1;" d="M 45.132812 22.691406 C 45.132812 35.089844 35.046875 45.179688 22.644531 45.179688 C 10.246094 45.179688 0.15625 35.089844 0.15625 22.691406 C 0.15625 10.292969 10.246094 0.203125 22.644531 0.203125 C 35.046875 0.203125 45.132812 10.292969 45.132812 22.691406 Z M 1.519531 22.691406 C 1.519531 34.339844 10.996094 43.816406 22.644531 43.816406 C 34.292969 43.816406 43.769531 34.339844 43.769531 22.691406 C 43.769531 11.042969 34.292969 1.566406 22.644531 1.566406 C 10.996094 1.566406 1.519531 11.042969 1.519531 22.691406 Z M 1.519531 22.691406 "/>
</g>
<path style=" stroke:none;fill-rule:nonzero;fill:rgb(0%,0%,0%);fill-opacity:1;" d="M 31.152344 24.496094 L 22.527344 16.191406 L 14.140625 24.511719 L 16.0625 26.449219 L 22.554688 20.003906 L 29.261719 26.464844 Z M 31.152344 24.496094 "/>
</g>
</defs>
<g id="surface1">
<use xlink:href="#surface5" transform="matrix(1,0,0,1,486,235)" mask="url(#mask0)"/>
</g>
</svg>
