<svg xmlns="http://www.w3.org/2000/svg" xmlns:xlink="http://www.w3.org/1999/xlink" version="1.2" viewBox="477.15 243.62 39.43 39.43">
<g id="surface1">
<path style=" stroke:none;fill-rule:nonzero;fill:rgb(100%,100%,100%);fill-opacity:1;" d="M 496.875 283.035156 C 491.617188 283.035156 486.660156 280.984375 482.945312 277.261719 C 479.21875 273.542969 477.171875 268.589844 477.171875 263.328125 C 477.171875 258.066406 479.21875 253.113281 482.945312 249.394531 C 486.660156 245.667969 491.617188 243.621094 496.875 243.621094 C 502.136719 243.621094 507.09375 245.667969 510.808594 249.394531 C 514.535156 253.121094 516.582031 258.066406 516.582031 263.328125 C 516.582031 268.589844 514.535156 273.542969 510.808594 277.261719 C 507.09375 280.984375 502.136719 283.035156 496.875 283.035156 Z M 496.875 244.800781 C 491.929688 244.800781 487.277344 246.730469 483.777344 250.230469 C 480.28125 253.726562 478.351562 258.378906 478.351562 263.328125 C 478.351562 268.273438 480.28125 272.929688 483.777344 276.425781 C 487.277344 279.921875 491.929688 281.851562 496.875 281.851562 C 501.824219 281.851562 506.476562 279.921875 509.976562 276.425781 C 513.472656 272.929688 515.402344 268.273438 515.402344 263.328125 C 515.402344 258.378906 513.472656 253.726562 509.976562 250.230469 C 506.476562 246.730469 501.824219 244.800781 496.875 244.800781 Z M 496.875 244.800781 "/>
</g>
</svg>