<svg xmlns="http://www.w3.org/2000/svg" xmlns:xlink="http://www.w3.org/1999/xlink" version="1.2" viewBox="63.85 63.58 154.95 154.95">
<defs>
<clipPath id="clip1">
  <path d="M 63.984375 63.714844 L 219 63.714844 L 219 219 L 63.984375 219 Z M 63.984375 63.714844 "/>
</clipPath>
</defs>
<g id="surface1">
<g clip-path="url(#clip1)" clip-rule="nonzero">
<path style=" stroke:none;fill-rule:nonzero;fill:rgb(79.998779%,83.918762%,86.669922%);fill-opacity:1;" d="M 193.777344 63.609375 C 201.203125 143.761719 148.425781 200.933594 63.878906 193.511719 C 99.9375 227.449219 156.636719 226.882812 191.890625 191.625 C 227.152344 156.367188 227.722656 99.667969 193.777344 63.609375 Z M 193.777344 63.609375 "/>
</g>
<path style=" stroke:none;fill-rule:nonzero;fill:rgb(72.158813%,77.249146%,80.389404%);fill-opacity:1;" d="M 195.507812 130.191406 C 193.515625 132.1875 193.515625 135.421875 195.507812 137.421875 C 197.503906 139.414062 200.738281 139.414062 202.734375 137.421875 C 204.730469 135.421875 204.734375 132.1875 202.734375 130.191406 C 200.742188 128.195312 197.503906 128.195312 195.507812 130.191406 Z M 125.042969 193.433594 C 122.042969 196.429688 122.042969 201.277344 125.042969 204.277344 C 128.035156 207.277344 132.890625 207.277344 135.878906 204.277344 C 138.875 201.277344 138.875 196.429688 135.878906 193.433594 C 132.890625 190.4375 128.035156 190.4375 125.042969 193.433594 Z M 186.472656 183.992188 C 181.480469 188.984375 173.394531 188.984375 168.40625 183.992188 C 163.414062 179 163.414062 170.910156 168.40625 165.929688 C 173.398438 160.933594 181.488281 160.933594 186.472656 165.929688 C 191.464844 170.914062 191.464844 179.003906 186.472656 183.992188 Z M 186.472656 183.992188 "/>
</g>
</svg>