<svg xmlns="http://www.w3.org/2000/svg" xmlns:xlink="http://www.w3.org/1999/xlink" version="1.2" viewBox="301.53 82.27 321.8 324.1">
<defs>
<clipPath id="clip1">
  <path d="M 330.648438 82 L 623.742188 82 L 623.742188 406.421875 L 330.648438 406.421875 Z M 330.648438 82 "/>
</clipPath>
<clipPath id="clip2">
  <path d="M 301 86.023438 L 618.242188 86.023438 L 618.242188 372.371094 L 301 372.371094 Z M 301 86.023438 "/>
</clipPath>
<clipPath id="clip3">
  <path d="M 323 85.707031 L 605.316406 85.707031 L 605.316406 399 L 323 399 Z M 323 85.707031 "/>
</clipPath>
</defs>
<g id="surface1">
<g clip-path="url(#clip1)" clip-rule="nonzero">
<path style=" stroke:none;fill-rule:nonzero;fill:rgb(98.039246%,83.918762%,10.198975%);fill-opacity:1;" d="M 414.175781 178.1875 C 415.359375 174.203125 416.464844 170.21875 417.796875 166.269531 C 424.074219 147.414062 430.316406 128.558594 436.703125 109.738281 C 438.550781 104.316406 440.726562 98.964844 442.945312 93.6875 C 444.234375 90.550781 446.195312 87.746094 448.667969 85.460938 C 449.40625 84.757812 450.179688 84.132812 451.03125 83.578125 C 454.871094 81.105469 459.230469 82.210938 461.1875 86.308594 C 462.183594 88.558594 462.921875 90.882812 463.476562 93.28125 C 467.058594 108.117188 469.199219 123.246094 471.339844 138.335938 C 472.597656 147.042969 473.925781 155.789062 475.441406 164.5 C 475.515625 163.90625 475.550781 163.28125 475.660156 162.691406 C 476.214844 159.441406 476.660156 156.195312 477.472656 153.023438 C 478.136719 150.328125 479.761719 147.929688 482.011719 146.308594 C 485.890625 143.429688 490.875 143.871094 493.976562 147.597656 C 495.121094 149.039062 496.15625 150.585938 496.96875 152.246094 C 500.253906 158.632812 502.542969 165.421875 504.871094 172.171875 C 511.074219 190.585938 517.058594 209.109375 521.5625 228.003906 C 525.476562 244.3125 528.285156 260.84375 530.609375 277.449219 C 530.648438 277.816406 530.757812 278.1875 530.980469 278.480469 C 531.199219 276.710938 531.347656 274.9375 531.605469 273.203125 C 532.679688 265.160156 533.894531 257.117188 534.855469 249.035156 C 535.59375 242.835938 535.78125 236.5625 536.59375 230.363281 C 537.738281 221.617188 538.21875 212.800781 538.070312 203.980469 C 538.03125 200.992188 537.773438 198.113281 536.925781 195.234375 C 532.972656 181.988281 529.207031 168.667969 525.144531 155.457031 C 523.335938 149.554688 520.859375 143.871094 519.015625 137.96875 C 517.09375 132.027344 516.023438 125.828125 515.800781 119.554688 C 515.691406 115.570312 517.390625 112.433594 520.308594 109.996094 C 522.597656 108.078125 526.289062 107.488281 528.949219 110.847656 C 531.460938 114.09375 533.195312 117.855469 534.007812 121.878906 C 535.484375 129 536.8125 136.195312 537.957031 143.390625 C 540.800781 161.546875 541.726562 179.847656 541.871094 198.1875 C 541.871094 200.4375 542.613281 202.726562 543.203125 204.941406 C 545.453125 213.425781 547.484375 221.988281 550.144531 230.328125 C 555.867188 248.445312 561.703125 266.527344 567.757812 284.53125 C 572.964844 300.066406 577.359375 315.898438 582.34375 331.503906 C 585.042969 339.917969 588.070312 348.257812 591.246094 356.523438 C 593.867188 363.3125 597.632812 369.550781 601.804688 375.527344 C 603.429688 377.816406 605.460938 379.808594 607.34375 381.910156 C 607.53125 382.132812 607.824219 382.316406 607.898438 382.574219 C 608.011719 382.980469 608.121094 383.570312 607.9375 383.867188 C 607.605469 384.160156 607.160156 384.273438 606.71875 384.160156 C 605.941406 383.753906 605.242188 383.277344 604.574219 382.722656 C 600.476562 379.476562 597.671875 375.195312 594.902344 370.839844 C 589.546875 362.464844 586 353.3125 582.972656 343.976562 C 577.359375 326.523438 572.003906 308.960938 566.429688 291.507812 C 563.4375 282.171875 560.078125 272.910156 557.050781 263.574219 C 552.765625 250.328125 548.59375 237.003906 544.457031 223.683594 C 543.535156 220.769531 542.90625 217.78125 542.132812 214.753906 C 542.019531 214.828125 541.945312 214.867188 541.945312 214.902344 C 541.355469 220.84375 540.800781 226.785156 540.246094 232.6875 C 539.582031 239.773438 539.140625 246.894531 538.253906 253.941406 C 536.554688 267.335938 534.597656 280.730469 532.75 294.125 C 532.679688 294.863281 532.679688 295.640625 532.789062 296.378906 C 534.15625 307.335938 535.667969 318.222656 536.851562 329.179688 C 538.21875 341.359375 538.84375 353.609375 538.289062 365.894531 C 538.144531 368.035156 537.847656 370.140625 537.367188 372.207031 C 536.960938 374.199219 535.890625 376.007812 534.339844 377.335938 C 531.71875 379.585938 528.429688 379.144531 526.585938 376.226562 C 524.554688 373.054688 523.890625 369.476562 523.558594 365.820312 C 522.816406 357.222656 523.113281 348.625 523.445312 340.03125 C 524 325.304688 525.957031 310.730469 528.320312 296.191406 C 528.691406 293.867188 528.320312 291.394531 528.0625 288.996094 C 525.773438 267.003906 522.042969 245.199219 516.539062 223.757812 C 511.074219 202.46875 504.429688 181.507812 496.597656 160.992188 C 495.566406 158.335938 494.273438 155.789062 493.019531 153.207031 C 492.539062 152.246094 491.945312 151.324219 491.246094 150.476562 C 489.25 148.042969 486.40625 147.820312 484.007812 149.886719 C 482.566406 151.066406 481.570312 152.726562 481.238281 154.570312 C 480.574219 158.113281 479.761719 161.695312 479.613281 165.273438 C 479.167969 175.714844 478.875 186.160156 478.875 196.601562 C 478.875 201.582031 479.722656 206.527344 480.167969 211.507812 C 481.460938 226.046875 482.640625 240.621094 484.042969 255.160156 C 485.226562 267.523438 486.667969 279.882812 488.03125 292.246094 C 489.582031 306.042969 490.765625 319.882812 491.132812 333.757812 C 491.246094 337.628906 490.949219 341.46875 490.726562 345.34375 C 490.617188 346.414062 490.285156 347.445312 489.804688 348.441406 C 489.363281 349.585938 488.179688 350.324219 486.960938 350.25 C 485.632812 350.214844 484.488281 349.363281 484.082031 348.148438 C 480.019531 337.703125 476.84375 327.003906 476.03125 315.75 C 475.070312 302.503906 474.183594 289.292969 473.445312 276.046875 C 472.300781 256.304688 473.152344 236.601562 473.925781 216.859375 C 474.148438 211.359375 474.589844 205.863281 474.589844 200.402344 C 474.589844 196.046875 474 191.691406 473.742188 187.300781 C 472.890625 173.945312 470.527344 160.769531 468.535156 147.523438 C 466.871094 136.714844 465.582031 125.828125 463.769531 115.015625 C 462.476562 107.082031 460.632812 99.222656 458.96875 91.328125 C 458.75 90.292969 458.378906 89.296875 457.898438 88.375 C 456.828125 86.085938 455.054688 85.605469 452.949219 87.082031 C 450.957031 88.449219 449.371094 90.257812 448.261719 92.398438 C 446.636719 95.570312 444.902344 98.742188 443.757812 102.101562 C 438.4375 117.304688 433.195312 132.542969 428.136719 147.820312 C 424.148438 159.921875 420.453125 172.136719 416.652344 184.3125 C 416.503906 184.757812 416.464844 185.234375 416.539062 185.679688 C 419.347656 196.121094 420.601562 206.820312 421.785156 217.523438 C 423.335938 231.804688 424.257812 246.121094 424.554688 260.472656 C 424.847656 275.898438 424.109375 291.25 422.671875 306.597656 C 421.710938 316.894531 420.933594 327.1875 419.902344 337.484375 C 418.71875 348.773438 417.425781 360.027344 415.988281 371.320312 C 415.101562 378.699219 412.738281 385.820312 409.007812 392.277344 C 408.085938 393.828125 407.050781 395.304688 405.832031 396.671875 C 402.988281 399.878906 399.441406 400.359375 395.933594 397.886719 C 394.382812 396.78125 393.019531 395.378906 391.945312 393.828125 C 387.550781 387.742188 384.191406 381.0625 381.496094 374.050781 C 378.246094 365.785156 376.621094 356.964844 376.695312 348.109375 C 376.769531 326.230469 379.945312 304.789062 385.375 283.609375 C 393.203125 253.132812 401.363281 222.6875 410.113281 192.429688 C 410.667969 190.476562 411.296875 188.558594 411.851562 186.601562 C 412 186.121094 412.035156 185.605469 411.925781 185.125 C 410.152344 178.925781 407.679688 172.984375 404.613281 167.300781 C 398.222656 155.753906 386.222656 153.722656 377.027344 155.199219 C 375.476562 155.457031 373.925781 156.195312 372.523438 157.007812 C 367.757812 159.703125 363.734375 163.316406 359.929688 167.230469 C 358.378906 168.816406 356.828125 170.367188 355.203125 171.839844 C 354.023438 172.910156 352.472656 173.539062 350.847656 173.574219 C 350.625 173.539062 350.402344 173.464844 350.21875 173.355469 C 350.328125 173.132812 350.367188 172.835938 350.550781 172.765625 C 352.210938 171.65625 353.136719 169.960938 354.207031 168.410156 C 358.933594 161.582031 365.0625 156.34375 372.375 152.46875 C 374.554688 151.363281 376.953125 150.773438 379.390625 150.734375 C 385.667969 150.476562 391.726562 151.324219 397.375 154.3125 C 401.695312 156.601562 405.019531 159.996094 407.605469 164.09375 C 410.1875 168.1875 412.074219 172.691406 413.808594 177.191406 L 414.214844 178.296875 Z M 413.808594 193.574219 L 413.585938 193.574219 C 413.4375 194.089844 413.253906 194.570312 413.105469 195.089844 C 404.574219 224.902344 396.453125 254.792969 388.769531 284.828125 C 383.417969 305.75 380.277344 326.96875 380.203125 348.589844 C 380.128906 356.707031 381.605469 364.753906 384.449219 372.351562 C 387.074219 379.289062 390.285156 385.894531 394.605469 391.910156 C 395.382812 393.054688 396.339844 394.011719 397.449219 394.863281 C 399.480469 396.339844 401.214844 396.117188 402.804688 394.234375 C 403.984375 392.871094 404.980469 391.394531 405.867188 389.808594 C 409.488281 383.3125 411.332031 376.226562 412.21875 368.886719 C 413.070312 361.6875 413.660156 354.492188 414.546875 347.335938 C 417.09375 326.855469 418.683594 306.339844 419.753906 285.75 C 421.230469 257.632812 419.125 229.664062 415.210938 201.839844 C 414.84375 199.035156 414.289062 196.304688 413.808594 193.574219 Z M 537.515625 184.3125 L 537.699219 184.3125 C 537.699219 183.613281 537.699219 182.875 537.699219 182.171875 C 537.292969 169 536.113281 155.828125 534.15625 142.800781 C 533.15625 136.195312 532.011719 129.628906 530.71875 123.058594 C 530.054688 119.519531 528.617188 116.195312 526.472656 113.28125 C 525.109375 111.4375 523.59375 111.695312 522.226562 112.914062 C 520.308594 114.648438 519.164062 116.824219 519.234375 119.589844 C 519.421875 126.601562 521.007812 133.355469 523.335938 139.921875 C 526.992188 150.292969 530.832031 160.625 533.75 171.25 C 534.894531 175.605469 536.261719 179.921875 537.515625 184.3125 Z M 486.738281 345.011719 C 486.8125 345.011719 486.886719 344.972656 486.960938 344.972656 C 487.035156 344.347656 487.183594 343.683594 487.183594 343.054688 C 487.257812 340.101562 487.550781 337.113281 487.367188 334.164062 C 486.628906 322.613281 485.964844 311.0625 484.855469 299.550781 C 483.675781 286.855469 481.9375 274.199219 480.609375 261.507812 C 479.464844 250.402344 478.617188 239.257812 477.617188 228.148438 C 477.582031 227.78125 477.546875 227.449219 477.472656 227.078125 C 477.285156 227.410156 477.210938 227.78125 477.210938 228.148438 C 475.808594 255.863281 476.992188 283.5 479.097656 311.136719 C 479.980469 322.390625 482.160156 333.3125 486.222656 343.828125 C 486.40625 344.234375 486.59375 344.605469 486.738281 345.011719 Z M 530.316406 309.625 L 530.167969 309.625 C 530.09375 309.957031 530.019531 310.289062 529.980469 310.621094 C 528.503906 321.101562 527.324219 331.652344 527.066406 342.242188 C 526.878906 350.027344 527.027344 357.851562 527.140625 365.636719 C 527.140625 368.554688 527.878906 371.394531 529.242188 373.976562 C 530.054688 375.453125 531.164062 375.636719 532.125 374.273438 C 532.972656 373.054688 533.785156 371.617188 533.96875 370.214844 C 534.488281 366.191406 534.746094 362.167969 534.746094 358.109375 C 534.597656 344.9375 533.675781 331.835938 531.605469 318.8125 C 531.125 315.785156 530.757812 312.6875 530.316406 309.625 Z M 619.976562 399.878906 C 620.785156 400.398438 621.597656 400.875 622.339844 401.429688 C 623.742188 402.425781 623.628906 405.339844 622.078125 406.191406 C 621.671875 406.375 621.191406 406.410156 620.75 406.226562 C 620.011719 405.859375 619.308594 405.453125 618.644531 404.9375 C 617.09375 403.828125 617.277344 401.910156 618.941406 400.949219 C 619.382812 400.765625 619.640625 400.285156 619.976562 399.878906 Z M 333.898438 186.195312 C 336.332031 186.230469 337.074219 187.375 336.296875 189.183594 C 335.410156 191.289062 334.414062 191.691406 332.492188 190.84375 C 331.3125 190.253906 330.648438 188.960938 330.832031 187.632812 C 330.867188 187.488281 330.941406 187.375 331.054688 187.300781 C 332.160156 186.894531 333.269531 186.453125 333.898438 186.195312 Z M 333.898438 186.195312 "/>
</g>
<g clip-path="url(#clip2)" clip-rule="nonzero">
<path style=" stroke:none;fill-rule:nonzero;fill:rgb(92.939758%,10.978699%,14.118958%);fill-opacity:1;" d="M 395.269531 290.765625 C 391.375 289.609375 387.480469 288.527344 383.625 287.230469 C 365.203125 281.097656 346.78125 275 328.398438 268.757812 C 323.097656 266.953125 317.871094 264.824219 312.714844 262.660156 C 309.652344 261.398438 306.910156 259.484375 304.675781 257.070312 C 303.992188 256.347656 303.378906 255.589844 302.835938 254.761719 C 300.421875 251.007812 301.503906 246.75 305.503906 244.839844 C 307.703125 243.863281 309.976562 243.144531 312.320312 242.601562 C 326.808594 239.101562 341.589844 237.007812 356.335938 234.917969 C 364.84375 233.691406 373.386719 232.390625 381.894531 230.914062 C 381.316406 230.839844 380.703125 230.804688 380.128906 230.695312 C 376.957031 230.15625 373.78125 229.722656 370.683594 228.929688 C 368.050781 228.277344 365.707031 226.691406 364.121094 224.492188 C 361.308594 220.703125 361.742188 215.832031 365.382812 212.800781 C 366.789062 211.683594 368.304688 210.671875 369.925781 209.878906 C 376.164062 206.667969 382.796875 204.433594 389.390625 202.160156 C 407.382812 196.097656 425.476562 190.253906 443.933594 185.851562 C 459.871094 182.027344 476.019531 179.285156 492.242188 177.011719 C 492.601562 176.976562 492.960938 176.867188 493.25 176.652344 C 491.519531 176.433594 489.789062 176.292969 488.097656 176.039062 C 480.238281 174.992188 472.378906 173.800781 464.484375 172.863281 C 458.425781 172.140625 452.300781 171.960938 446.242188 171.167969 C 437.699219 170.050781 429.082031 169.582031 420.46875 169.726562 C 417.546875 169.761719 414.734375 170.011719 411.921875 170.84375 C 398.980469 174.703125 385.96875 178.382812 373.0625 182.351562 C 367.292969 184.121094 361.742188 186.539062 355.972656 188.339844 C 350.171875 190.21875 344.113281 191.261719 337.984375 191.480469 C 334.09375 191.589844 331.027344 189.929688 328.648438 187.078125 C 326.773438 184.839844 326.199219 181.234375 329.476562 178.636719 C 332.652344 176.183594 336.328125 174.488281 340.257812 173.695312 C 347.214844 172.25 354.246094 170.953125 361.273438 169.832031 C 379.011719 167.054688 396.890625 166.152344 414.808594 166.007812 C 417.007812 166.007812 419.242188 165.289062 421.40625 164.710938 C 429.695312 162.507812 438.058594 160.523438 446.207031 157.925781 C 463.90625 152.335938 481.570312 146.636719 499.164062 140.71875 C 514.339844 135.632812 529.804688 131.339844 545.054688 126.46875 C 553.273438 123.835938 561.421875 120.875 569.496094 117.773438 C 576.128906 115.210938 582.222656 111.53125 588.0625 107.457031 C 590.296875 105.867188 592.242188 103.882812 594.296875 102.042969 C 594.515625 101.863281 594.695312 101.574219 594.945312 101.503906 C 595.34375 101.394531 595.921875 101.285156 596.207031 101.464844 C 596.496094 101.789062 596.605469 102.222656 596.496094 102.65625 C 596.101562 103.414062 595.632812 104.101562 595.089844 104.75 C 591.917969 108.753906 587.738281 111.496094 583.484375 114.203125 C 575.300781 119.433594 566.359375 122.894531 557.238281 125.855469 C 540.1875 131.339844 523.027344 136.570312 505.976562 142.015625 C 496.855469 144.941406 487.808594 148.222656 478.6875 151.179688 C 465.746094 155.367188 452.730469 159.441406 439.71875 163.484375 C 436.871094 164.386719 433.949219 165 430.992188 165.757812 C 431.066406 165.863281 431.101562 165.9375 431.136719 165.9375 C 436.941406 166.515625 442.746094 167.054688 448.511719 167.597656 C 455.433594 168.246094 462.394531 168.679688 469.277344 169.542969 C 482.363281 171.203125 495.449219 173.117188 508.535156 174.921875 C 509.257812 174.992188 510.015625 174.992188 510.734375 174.882812 C 521.441406 173.550781 532.078125 172.070312 542.78125 170.914062 C 554.679688 169.582031 566.648438 168.96875 578.652344 169.507812 C 580.742188 169.652344 582.796875 169.941406 584.816406 170.410156 C 586.761719 170.808594 588.53125 171.855469 589.828125 173.367188 C 592.027344 175.929688 591.59375 179.140625 588.746094 180.945312 C 585.644531 182.929688 582.148438 183.578125 578.582031 183.902344 C 570.179688 184.625 561.78125 184.335938 553.382812 184.011719 C 538.996094 183.46875 524.757812 181.558594 510.554688 179.25 C 508.285156 178.890625 505.867188 179.25 503.523438 179.503906 C 482.039062 181.738281 460.734375 185.382812 439.789062 190.757812 C 418.988281 196.097656 398.511719 202.589844 378.46875 210.238281 C 375.875 211.25 373.386719 212.511719 370.863281 213.738281 C 369.925781 214.207031 369.023438 214.785156 368.195312 215.472656 C 365.816406 217.417969 365.601562 220.199219 367.617188 222.542969 C 368.773438 223.949219 370.394531 224.921875 372.195312 225.25 C 375.65625 225.898438 379.15625 226.691406 382.652344 226.835938 C 392.851562 227.269531 403.054688 227.558594 413.257812 227.558594 C 418.125 227.558594 422.953125 226.726562 427.820312 226.292969 C 442.023438 225.03125 456.265625 223.878906 470.46875 222.507812 C 482.542969 221.351562 494.621094 219.945312 506.699219 218.609375 C 520.179688 217.09375 533.699219 215.941406 547.253906 215.578125 C 551.039062 215.472656 554.789062 215.761719 558.574219 215.976562 C 559.617188 216.085938 560.628906 216.410156 561.601562 216.878906 C 562.71875 217.3125 563.441406 218.464844 563.367188 219.65625 C 563.332031 220.957031 562.503906 222.074219 561.3125 222.46875 C 551.109375 226.4375 540.65625 229.542969 529.660156 230.335938 C 516.71875 231.273438 503.8125 232.140625 490.871094 232.859375 C 471.585938 233.980469 452.335938 233.148438 433.046875 232.390625 C 427.675781 232.175781 422.304688 231.742188 416.96875 231.742188 C 412.714844 231.742188 408.460938 232.320312 404.171875 232.570312 C 391.121094 233.402344 378.253906 235.710938 365.3125 237.660156 C 354.75 239.28125 344.113281 240.546875 333.550781 242.3125 C 325.800781 243.574219 318.121094 245.378906 310.40625 247.003906 C 309.398438 247.21875 308.425781 247.582031 307.523438 248.050781 C 305.289062 249.097656 304.820312 250.828125 306.261719 252.882812 C 307.597656 254.832031 309.363281 256.382812 311.453125 257.464844 C 314.554688 259.054688 317.652344 260.75 320.933594 261.867188 C 335.785156 267.0625 350.675781 272.183594 365.601562 277.128906 C 377.425781 281.023438 389.355469 284.632812 401.253906 288.347656 C 401.683594 288.492188 402.152344 288.527344 402.585938 288.457031 C 412.789062 285.714844 423.242188 284.488281 433.699219 283.332031 C 447.648438 281.816406 461.636719 280.917969 475.660156 280.628906 C 490.726562 280.339844 505.722656 281.058594 520.722656 282.46875 C 530.777344 283.40625 540.835938 284.164062 550.894531 285.171875 C 561.925781 286.328125 572.921875 287.589844 583.953125 288.996094 C 591.160156 289.863281 598.121094 292.171875 604.429688 295.816406 C 605.941406 296.71875 607.382812 297.726562 608.71875 298.917969 C 611.855469 301.695312 612.324219 305.160156 609.90625 308.585938 C 608.824219 310.101562 607.457031 311.4375 605.941406 312.484375 C 599.992188 316.777344 593.46875 320.058594 586.621094 322.695312 C 578.542969 325.867188 569.929688 327.457031 561.277344 327.382812 C 539.898438 327.3125 518.953125 324.210938 498.261719 318.90625 C 468.484375 311.257812 438.746094 303.285156 409.183594 294.734375 C 407.273438 294.191406 405.398438 293.578125 403.488281 293.039062 C 403.019531 292.894531 402.515625 292.859375 402.046875 292.964844 C 395.988281 294.699219 390.183594 297.113281 384.632812 300.109375 C 373.351562 306.351562 371.367188 318.074219 372.808594 327.058594 C 373.0625 328.574219 373.78125 330.089844 374.574219 331.460938 C 377.207031 336.113281 380.742188 340.046875 384.5625 343.761719 C 386.113281 345.277344 387.625 346.792969 389.066406 348.382812 C 390.113281 349.535156 390.726562 351.050781 390.761719 352.636719 C 390.726562 352.855469 390.652344 353.070312 390.546875 353.25 C 390.328125 353.144531 390.042969 353.105469 389.96875 352.925781 C 388.886719 351.304688 387.230469 350.402344 385.714844 349.355469 C 379.046875 344.738281 373.925781 338.75 370.140625 331.605469 C 369.058594 329.476562 368.484375 327.132812 368.449219 324.75 C 368.195312 318.617188 369.023438 312.699219 371.945312 307.179688 C 374.179688 302.960938 377.496094 299.710938 381.496094 297.1875 C 385.5 294.660156 389.898438 292.820312 394.296875 291.125 L 395.375 290.730469 Z M 410.300781 291.125 L 410.300781 291.34375 C 410.804688 291.488281 411.273438 291.667969 411.777344 291.8125 C 440.90625 300.144531 470.105469 308.082031 499.453125 315.585938 C 519.890625 320.816406 540.621094 323.882812 561.746094 323.957031 C 569.675781 324.027344 577.535156 322.585938 584.960938 319.808594 C 591.738281 317.246094 598.191406 314.109375 604.066406 309.886719 C 605.183594 309.128906 606.121094 308.191406 606.953125 307.109375 C 608.394531 305.125 608.175781 303.429688 606.339844 301.878906 C 605.003906 300.722656 603.5625 299.75 602.011719 298.882812 C 595.667969 295.347656 588.746094 293.542969 581.574219 292.675781 C 574.542969 291.847656 567.511719 291.269531 560.519531 290.40625 C 540.511719 287.914062 520.46875 286.363281 500.351562 285.316406 C 472.882812 283.875 445.558594 285.929688 418.375 289.753906 C 415.636719 290.117188 412.96875 290.65625 410.300781 291.125 Z M 401.253906 170.265625 L 401.253906 170.085938 C 400.566406 170.085938 399.847656 170.085938 399.160156 170.085938 C 386.292969 170.484375 373.421875 171.636719 360.695312 173.550781 C 354.246094 174.523438 347.828125 175.640625 341.410156 176.90625 C 337.949219 177.554688 334.707031 178.960938 331.855469 181.054688 C 330.054688 182.386719 330.308594 183.867188 331.496094 185.203125 C 333.191406 187.078125 335.316406 188.195312 338.023438 188.125 C 344.871094 187.945312 351.46875 186.394531 357.886719 184.121094 C 368.015625 180.546875 378.109375 176.796875 388.492188 173.945312 C 392.746094 172.828125 396.960938 171.492188 401.253906 170.265625 Z M 558.25 219.871094 C 558.25 219.800781 558.210938 219.730469 558.210938 219.65625 C 557.597656 219.585938 556.949219 219.441406 556.335938 219.441406 C 553.453125 219.367188 550.535156 219.078125 547.648438 219.257812 C 536.367188 219.980469 525.082031 220.628906 513.835938 221.710938 C 501.433594 222.867188 489.070312 224.5625 476.667969 225.863281 C 465.816406 226.980469 454.929688 227.808594 444.078125 228.785156 C 443.71875 228.820312 443.394531 228.855469 443.035156 228.929688 C 443.359375 229.109375 443.71875 229.179688 444.078125 229.179688 C 471.152344 230.550781 498.152344 229.398438 525.15625 227.339844 C 536.148438 226.476562 546.820312 224.347656 557.09375 220.378906 C 557.492188 220.199219 557.851562 220.015625 558.25 219.871094 Z M 523.675781 177.300781 L 523.675781 177.445312 C 524 177.519531 524.324219 177.589844 524.648438 177.625 C 534.886719 179.070312 545.199219 180.222656 555.542969 180.476562 C 563.152344 180.65625 570.792969 180.511719 578.398438 180.402344 C 581.25 180.402344 584.023438 179.683594 586.546875 178.347656 C 587.988281 177.554688 588.167969 176.472656 586.835938 175.535156 C 585.644531 174.703125 584.238281 173.910156 582.871094 173.730469 C 578.941406 173.222656 575.011719 172.972656 571.046875 172.972656 C 558.175781 173.117188 545.378906 174.019531 532.652344 176.039062 C 529.695312 176.507812 526.667969 176.867188 523.675781 177.300781 Z M 611.855469 89.703125 C 612.359375 88.910156 612.828125 88.117188 613.367188 87.394531 C 614.339844 86.023438 617.191406 86.132812 618.019531 87.648438 C 618.199219 88.046875 618.234375 88.515625 618.054688 88.949219 C 617.695312 89.667969 617.296875 90.355469 616.792969 91.003906 C 615.710938 92.519531 613.835938 92.339844 612.898438 90.714844 C 612.71875 90.28125 612.25 90.03125 611.855469 89.703125 Z M 403.089844 369.199219 C 403.128906 366.816406 404.246094 366.09375 406.011719 366.851562 C 408.066406 367.71875 408.460938 368.691406 407.632812 370.570312 C 407.058594 371.722656 405.796875 372.371094 404.496094 372.191406 C 404.351562 372.15625 404.246094 372.085938 404.171875 371.976562 C 403.777344 370.894531 403.34375 369.8125 403.089844 369.199219 Z M 403.089844 369.199219 "/>
</g>
<g clip-path="url(#clip3)" clip-rule="nonzero">
<path style=" stroke:none;fill-rule:nonzero;fill:rgb(0%,50.19989%,21.569824%);fill-opacity:1;" d="M 524.777344 306.050781 C 523.636719 309.898438 522.570312 313.746094 521.289062 317.558594 C 515.234375 335.761719 509.21875 353.964844 503.058594 372.132812 C 501.277344 377.371094 499.175781 382.535156 497.039062 387.628906 C 495.792969 390.660156 493.90625 393.367188 491.523438 395.574219 C 490.808594 396.25 490.0625 396.855469 489.242188 397.390625 C 485.539062 399.777344 481.339844 398.710938 479.453125 394.753906 C 478.488281 392.582031 477.777344 390.339844 477.242188 388.023438 C 473.789062 373.703125 471.726562 359.097656 469.660156 344.527344 C 468.449219 336.117188 467.167969 327.675781 465.707031 319.269531 C 465.636719 319.839844 465.601562 320.445312 465.492188 321.015625 C 464.960938 324.148438 464.53125 327.285156 463.75 330.347656 C 463.109375 332.949219 461.542969 335.265625 459.371094 336.832031 C 455.632812 339.609375 450.824219 339.183594 447.832031 335.585938 C 446.730469 334.195312 445.734375 332.699219 444.949219 331.097656 C 441.78125 324.933594 439.574219 318.378906 437.332031 311.859375 C 431.347656 294.082031 425.582031 276.199219 421.238281 257.960938 C 417.460938 242.214844 414.757812 226.257812 412.511719 210.226562 C 412.476562 209.871094 412.371094 209.511719 412.15625 209.226562 C 411.945312 210.9375 411.800781 212.648438 411.550781 214.320312 C 410.519531 222.089844 409.34375 229.855469 408.417969 237.65625 C 407.707031 243.640625 407.527344 249.695312 406.746094 255.679688 C 405.640625 264.125 405.179688 272.636719 405.320312 281.152344 C 405.355469 284.039062 405.605469 286.816406 406.425781 289.59375 C 410.234375 302.382812 413.867188 315.242188 417.78125 327.996094 C 419.527344 333.695312 421.914062 339.183594 423.695312 344.882812 C 425.542969 350.617188 426.578125 356.601562 426.792969 362.660156 C 426.898438 366.503906 425.261719 369.535156 422.445312 371.886719 C 420.238281 373.738281 416.679688 374.308594 414.117188 371.066406 C 411.695312 367.929688 410.019531 364.296875 409.238281 360.414062 C 407.8125 353.539062 406.53125 346.59375 405.429688 339.644531 C 402.6875 322.117188 401.796875 304.449219 401.652344 286.746094 C 401.652344 284.570312 400.941406 282.363281 400.371094 280.226562 C 398.199219 272.03125 396.242188 263.769531 393.679688 255.714844 C 388.160156 238.226562 382.535156 220.769531 376.695312 203.386719 C 371.675781 188.386719 367.4375 173.105469 362.628906 158.035156 C 360.03125 149.914062 357.113281 141.863281 354.050781 133.882812 C 351.519531 127.328125 347.890625 121.308594 343.867188 115.539062 C 342.300781 113.328125 340.339844 111.40625 338.527344 109.375 C 338.347656 109.160156 338.0625 108.984375 337.992188 108.734375 C 337.882812 108.34375 337.777344 107.773438 337.957031 107.488281 C 338.277344 107.203125 338.703125 107.09375 339.128906 107.203125 C 339.878906 107.59375 340.554688 108.058594 341.195312 108.589844 C 345.148438 111.726562 347.855469 115.859375 350.523438 120.0625 C 355.6875 128.148438 359.105469 136.984375 362.023438 145.996094 C 367.4375 162.847656 372.601562 179.804688 377.976562 196.652344 C 380.859375 205.664062 384.101562 214.605469 387.019531 223.621094 C 391.148438 236.410156 395.171875 249.269531 399.160156 262.128906 C 400.050781 264.941406 400.65625 267.828125 401.40625 270.75 C 401.511719 270.679688 401.582031 270.644531 401.582031 270.605469 C 402.152344 264.871094 402.6875 259.136719 403.21875 253.4375 C 403.859375 246.597656 404.289062 239.722656 405.144531 232.917969 C 406.78125 219.988281 408.667969 207.054688 410.449219 194.125 C 410.519531 193.410156 410.519531 192.664062 410.414062 191.949219 C 409.09375 181.371094 407.636719 170.863281 406.496094 160.28125 C 405.179688 148.527344 404.574219 136.699219 405.109375 124.835938 C 405.25 122.769531 405.535156 120.738281 405.996094 118.746094 C 406.390625 116.820312 407.421875 115.074219 408.917969 113.792969 C 411.445312 111.621094 414.613281 112.046875 416.394531 114.863281 C 418.351562 117.925781 418.992188 121.378906 419.3125 124.90625 C 420.027344 133.207031 419.742188 141.507812 419.421875 149.808594 C 418.886719 164.023438 417 178.09375 414.722656 192.128906 C 414.363281 194.375 414.722656 196.761719 414.96875 199.074219 C 417.175781 220.308594 420.773438 241.359375 426.078125 262.058594 C 431.347656 282.613281 437.757812 302.847656 445.304688 322.652344 C 446.304688 325.21875 447.550781 327.675781 448.757812 330.167969 C 449.222656 331.097656 449.792969 331.988281 450.46875 332.804688 C 452.390625 335.15625 455.132812 335.371094 457.449219 333.375 C 458.835938 332.234375 459.796875 330.632812 460.117188 328.851562 C 460.757812 325.433594 461.542969 321.976562 461.683594 318.519531 C 462.113281 308.441406 462.394531 298.359375 462.394531 288.277344 C 462.394531 283.46875 461.578125 278.695312 461.148438 273.882812 C 459.902344 259.847656 458.765625 245.777344 457.410156 231.742188 C 456.273438 219.808594 454.882812 207.875 453.566406 195.941406 C 452.070312 182.617188 450.929688 169.257812 450.574219 155.863281 C 450.46875 152.125 450.753906 148.417969 450.96875 144.679688 C 451.074219 143.644531 451.394531 142.648438 451.855469 141.6875 C 452.285156 140.582031 453.425781 139.867188 454.597656 139.941406 C 455.878906 139.976562 456.984375 140.796875 457.375 141.972656 C 461.292969 152.050781 464.355469 162.382812 465.136719 173.25 C 466.0625 186.039062 466.917969 198.789062 467.628906 211.578125 C 468.734375 230.636719 467.914062 249.660156 467.167969 268.71875 C 466.953125 274.027344 466.527344 279.335938 466.527344 284.605469 C 466.527344 288.8125 467.097656 293.015625 467.34375 297.253906 C 468.164062 310.148438 470.441406 322.867188 472.367188 335.65625 C 473.96875 346.09375 475.214844 356.601562 476.960938 367.039062 C 478.207031 374.699219 479.984375 382.285156 481.585938 389.910156 C 481.800781 390.90625 482.15625 391.871094 482.621094 392.761719 C 483.652344 394.96875 485.363281 395.433594 487.390625 394.007812 C 489.3125 392.6875 490.84375 390.945312 491.914062 388.878906 C 493.480469 385.8125 495.152344 382.75 496.257812 379.507812 C 501.382812 364.832031 506.441406 350.117188 511.316406 335.371094 C 515.164062 323.6875 518.722656 311.894531 522.390625 300.140625 C 522.535156 299.710938 522.570312 299.25 522.5 298.820312 C 519.792969 288.738281 518.582031 278.410156 517.441406 268.078125 C 515.945312 254.292969 515.058594 240.46875 514.773438 226.613281 C 514.488281 211.722656 515.199219 196.902344 516.585938 182.082031 C 517.511719 172.144531 518.261719 162.203125 519.257812 152.265625 C 520.398438 141.367188 521.644531 130.5 523.03125 119.597656 C 523.886719 112.472656 526.164062 105.597656 529.761719 99.363281 C 530.652344 97.867188 531.648438 96.445312 532.824219 95.125 C 535.566406 92.027344 538.984375 91.5625 542.367188 93.949219 C 543.863281 95.019531 545.179688 96.371094 546.210938 97.867188 C 550.449219 103.746094 553.6875 110.195312 556.289062 116.964844 C 559.421875 124.941406 560.988281 133.457031 560.917969 142.007812 C 560.84375 163.132812 557.78125 183.828125 552.550781 204.277344 C 545 233.703125 537.132812 263.089844 528.695312 292.300781 C 528.160156 294.191406 527.554688 296.042969 527.019531 297.929688 C 526.878906 298.394531 526.84375 298.890625 526.949219 299.355469 C 528.65625 305.339844 531.042969 311.074219 534 316.5625 C 540.160156 327.710938 551.730469 329.671875 560.597656 328.246094 C 562.089844 327.996094 563.585938 327.285156 564.941406 326.5 C 569.53125 323.898438 573.414062 320.410156 577.082031 316.632812 C 578.578125 315.101562 580.070312 313.605469 581.640625 312.179688 C 582.777344 311.148438 584.273438 310.542969 585.839844 310.503906 C 586.054688 310.542969 586.265625 310.613281 586.445312 310.71875 C 586.339844 310.933594 586.304688 311.21875 586.125 311.289062 C 584.523438 312.359375 583.632812 313.996094 582.601562 315.492188 C 578.042969 322.082031 572.132812 327.140625 565.082031 330.882812 C 562.980469 331.949219 560.667969 332.519531 558.316406 332.558594 C 552.265625 332.804688 546.425781 331.988281 540.976562 329.101562 C 536.8125 326.890625 533.605469 323.613281 531.113281 319.660156 C 528.621094 315.707031 526.804688 311.359375 525.132812 307.015625 L 524.742188 305.945312 Z M 525.132812 291.199219 L 525.347656 291.199219 C 525.488281 290.699219 525.667969 290.234375 525.808594 289.738281 C 534.035156 260.953125 541.867188 232.097656 549.273438 203.101562 C 554.4375 182.902344 557.460938 162.417969 557.535156 141.542969 C 557.605469 133.707031 556.179688 125.941406 553.4375 118.601562 C 550.910156 111.90625 547.8125 105.527344 543.648438 99.722656 C 542.898438 98.617188 541.972656 97.691406 540.90625 96.871094 C 538.949219 95.445312 537.273438 95.660156 535.742188 97.476562 C 534.605469 98.796875 533.644531 100.21875 532.789062 101.75 C 529.300781 108.023438 527.519531 114.859375 526.664062 121.949219 C 525.84375 128.898438 525.277344 135.84375 524.421875 142.753906 C 521.964844 162.527344 520.433594 182.332031 519.402344 202.210938 C 517.976562 229.355469 520.007812 256.359375 523.78125 283.21875 C 524.136719 285.925781 524.671875 288.5625 525.132812 291.199219 Z M 405.855469 300.140625 L 405.675781 300.140625 C 405.675781 300.816406 405.675781 301.527344 405.675781 302.207031 C 406.070312 314.921875 407.207031 327.640625 409.09375 340.214844 C 410.054688 346.59375 411.160156 352.933594 412.40625 359.273438 C 413.046875 362.695312 414.4375 365.898438 416.5 368.714844 C 417.820312 370.496094 419.277344 370.246094 420.597656 369.070312 C 422.445312 367.394531 423.550781 365.292969 423.480469 362.621094 C 423.300781 355.855469 421.769531 349.335938 419.527344 342.996094 C 416.003906 332.984375 412.300781 323.007812 409.488281 312.75 C 408.382812 308.546875 407.066406 304.378906 405.855469 300.140625 Z M 454.8125 145 C 454.742188 145 454.671875 145.035156 454.597656 145.035156 C 454.527344 145.640625 454.386719 146.28125 454.386719 146.886719 C 454.3125 149.738281 454.027344 152.621094 454.207031 155.472656 C 454.917969 166.621094 455.558594 177.773438 456.628906 188.886719 C 457.769531 201.140625 459.441406 213.359375 460.722656 225.613281 C 461.828125 236.335938 462.644531 247.097656 463.605469 257.820312 C 463.644531 258.175781 463.679688 258.496094 463.75 258.851562 C 463.925781 258.53125 464 258.175781 464 257.820312 C 465.351562 231.066406 464.210938 204.382812 462.183594 177.699219 C 461.328125 166.835938 459.226562 156.292969 455.3125 146.140625 C 455.132812 145.746094 454.953125 145.390625 454.8125 145 Z M 412.796875 179.160156 L 412.941406 179.160156 C 413.011719 178.839844 413.082031 178.519531 413.117188 178.199219 C 414.542969 168.082031 415.683594 157.894531 415.929688 147.671875 C 416.109375 140.152344 415.96875 132.601562 415.859375 125.085938 C 415.859375 122.269531 415.148438 119.527344 413.832031 117.035156 C 413.046875 115.609375 411.980469 115.429688 411.054688 116.75 C 410.234375 117.925781 409.453125 119.3125 409.273438 120.667969 C 408.773438 124.550781 408.527344 128.433594 408.527344 132.351562 C 408.667969 145.070312 409.558594 157.714844 411.550781 170.292969 C 412.015625 173.210938 412.371094 176.203125 412.796875 179.160156 Z M 326.347656 92.027344 C 325.566406 91.527344 324.78125 91.066406 324.070312 90.53125 C 322.714844 89.570312 322.824219 86.753906 324.320312 85.933594 C 324.710938 85.757812 325.171875 85.722656 325.601562 85.898438 C 326.3125 86.253906 326.988281 86.648438 327.628906 87.144531 C 329.125 88.214844 328.949219 90.066406 327.34375 90.992188 C 326.917969 91.171875 326.667969 91.632812 326.347656 92.027344 Z M 602.183594 298.324219 C 599.832031 298.285156 599.121094 297.183594 599.867188 295.4375 C 600.722656 293.40625 601.683594 293.015625 603.535156 293.832031 C 604.675781 294.402344 605.316406 295.652344 605.136719 296.933594 C 605.101562 297.074219 605.03125 297.183594 604.925781 297.253906 C 603.855469 297.644531 602.789062 298.074219 602.183594 298.324219 Z M 602.183594 298.324219 "/>
</g>
</g>
</svg>